<?xml version="1.0" encoding="iso-8859-1"?>
<!-- Uploaded to: SVG Repo, www.svgrepo.com, Generator: SVG Repo Mixer Tools -->
<svg fill="#000000" height="800px" width="800px" version="1.1" id="Layer_1" xmlns="http://www.w3.org/2000/svg" xmlns:xlink="http://www.w3.org/1999/xlink" 
	 viewBox="0 0 512 512" xml:space="preserve">
<g>
	<g>
		<path d="M256.551,100.198c-85.606,0-155.252,69.645-155.252,155.252c0,27.293,7.183,54.138,20.775,77.632
			c2.284,3.947,7.336,5.295,11.284,3.014c3.947-2.284,5.297-7.335,3.014-11.284c-12.139-20.984-18.556-44.969-18.556-69.362
			c0-76.499,62.236-138.735,138.735-138.735s138.735,62.236,138.735,138.735S333.05,394.185,256.551,394.185
			c-38.491,0-74.271-15.397-100.748-43.355c-3.136-3.311-8.363-3.454-11.675-0.317c-3.311,3.136-3.454,8.363-0.317,11.675
			c29.629,31.284,69.667,48.513,112.74,48.513c85.606,0,155.252-69.645,155.252-155.252S342.157,100.198,256.551,100.198z"/>
	</g>
</g>
<g>
	<g>
		<path d="M256.551,155.252c-55.25,0-100.198,44.948-100.198,100.198s44.948,100.198,100.198,100.198
			s100.198-44.948,100.198-100.198S311.8,155.252,256.551,155.252z M256.551,339.131c-46.143,0-83.682-37.539-83.682-83.682
			s37.539-83.682,83.682-83.682s83.682,37.539,83.682,83.682S302.693,339.131,256.551,339.131z"/>
	</g>
</g>
<g>
	<g>
		<path d="M397.488,78.176c-20.035,0-36.335,16.3-36.335,36.336s16.3,36.335,36.335,36.335c20.035,0,36.336-16.3,36.336-36.335
			S417.523,78.176,397.488,78.176z M397.488,134.331c-10.928,0-19.819-8.891-19.819-19.819s8.891-19.819,19.819-19.819
			s19.819,8.891,19.819,19.819S408.416,134.331,397.488,134.331z"/>
	</g>
</g>
<g>
	<g>
		<path d="M398.039,0H113.961C51.023,0,0,51.023,0,113.961v284.077C0,460.977,51.023,512,113.961,512h284.077
			C460.977,512,512,460.977,512,398.039V113.961C512,51.023,460.977,0,398.039,0z M495.484,398.039
			c0,53.817-43.628,97.445-97.445,97.445H113.961c-53.817,0-97.445-43.628-97.445-97.445V113.961
			c0-53.817,43.628-97.445,97.445-97.445h284.077c53.817,0,97.445,43.628,97.445,97.445V398.039z"/>
	</g>
</g>
<g>
	<g>
		<path d="M394.735,38.538H117.265c-43.479,0-78.727,35.248-78.727,78.727v277.471c0,43.479,35.248,78.727,78.727,78.727h277.471
			c43.479,0,78.727-35.248,78.727-78.727V117.265C473.462,73.785,438.215,38.538,394.735,38.538z M456.946,394.735
			c0,34.358-27.853,62.211-62.211,62.211H117.265c-34.358,0-62.211-27.853-62.211-62.211V117.265
			c0-34.358,27.853-62.211,62.211-62.211h277.471c34.358,0,62.211,27.853,62.211,62.211V394.735z"/>
	</g>
</g>
</svg>